# xmcd
# Copyright (C) 1995-1998 Ti Kan
#
# Track frame offsets:
#       150
#       18286
#       39420
#       66397
#       85308
#       104398
#       125146
#       139099
#       161132
#       182555
#       201178
#
# Disc length: 2946 seconds
#
# Revision: 0
# Processed by: cddbd v1.5.2PL0 Copyright (c) Steve Scherf et al.
# Submitted via: CD-Transfer v1.0
#
DISCID=9b0b800b
DTITLE=Missy May - To The One I Love
DYEAR=09
DGENRE=
TTITLE0=Baby Love
TTITLE1=Ain`t No Mountain High Enough
TTITLE2=Everything I Do
TTITLE3=Say A Little Prayer
TTITLE4=(They Long To Be) Close To You
TTITLE5=Isn`t She Lovely
TTITLE6=Whatever Youo Want
TTITLE7=Das Beste
TTITLE8=I Don´t Want To Miss A Thing
TTITLE9=The Voice Within
TTITLE10=I Swear
EXTD=
EXTT0=
EXTT1=
EXTT2=
EXTT3=
EXTT4=
EXTT5=
EXTT6=
EXTT7=
EXTT8=
EXTT9=
EXTT10=
PLAYORDER=
